<?xml version="1.0" encoding="UTF-8"?>
<svg id="Layer_2" data-name="Layer 2" xmlns="http://www.w3.org/2000/svg" viewBox="0 0 118.68 26.38">
  <defs>
    <style>
      .cls-1 {
        fill: #1336ea;
        stroke-width: 0px;
      }
    </style>
  </defs>
  <g id="Layer_1-2" data-name="Layer 1">
    <g>
      <g>
        <path class="cls-1" d="M0,7.23v2.14h2.91v8.85h2.68v-8.85h2.91v-2.14H0Z"/>
        <path class="cls-1" d="M15.94,13.87c.81-.24,1.42-.64,1.83-1.22.41-.57.62-1.22.62-1.95,0-.65-.15-1.24-.46-1.77-.3-.52-.76-.94-1.37-1.24-.61-.3-1.35-.45-2.21-.45h-4.5v10.99h2.68v-4.15h.64l2.29,4.15h3.02l-2.54-4.36ZM15.29,11.82c-.24.24-.61.36-1.1.36h-1.66v-2.73h1.66c.49,0,.86.12,1.1.36.25.24.37.57.37.98,0,.44-.12.78-.37,1.02Z"/>
        <path class="cls-1" d="M26.43,7.23h-3.1l-3.98,10.99h2.8c.9-2.68,1.81-5.36,2.71-8.04.9,2.68,1.81,5.36,2.71,8.04h2.84l-3.98-10.99Z"/>
        <path class="cls-1" d="M40.78,9.85c-.47-.83-1.14-1.48-2.01-1.94-.87-.46-1.88-.69-3.04-.69h-4.12v10.99h4.12c1.15,0,2.16-.23,3.03-.69.87-.46,1.55-1.11,2.02-1.94.48-.84.72-1.79.72-2.87s-.24-2.05-.72-2.87ZM37.92,15.08c-.56.55-1.35.83-2.37.83h-1.27v-6.39h1.27c1.02,0,1.8.28,2.37.85.56.56.85,1.35.85,2.37s-.28,1.8-.85,2.35Z"/>
        <path class="cls-1" d="M49.74,9.37v-2.14h-6.74v10.99h6.74v-2.15h-4.06v-2.41h3.59v-2.07h-3.59v-2.23h4.06Z"/>
        <path class="cls-1" d="M57.89,15.51c-.4.24-.86.36-1.37.36-.82,0-1.49-.29-2.01-.86-.51-.57-.77-1.34-.77-2.3s.26-1.73.77-2.3c.51-.57,1.18-.86,2.01-.86.51,0,.97.12,1.37.36.41.24.72.59.93,1.05h2.94c-.31-1.19-.93-2.13-1.86-2.82-.93-.69-2.05-1.04-3.35-1.04-1.07,0-2.02.24-2.86.71-.84.48-1.49,1.14-1.96,1.99-.47.85-.71,1.82-.71,2.91s.23,2.05.71,2.9c.47.84,1.13,1.5,1.96,1.98.84.48,1.8.71,2.86.71,1.3,0,2.42-.34,3.35-1.03.93-.68,1.55-1.62,1.86-2.81h-2.94c-.22.46-.53.81-.93,1.05Z"/>
        <path class="cls-1" d="M84.13,9.85c-.48-.83-1.15-1.48-2.02-1.94-.87-.46-1.88-.69-3.04-.69h-4.12v10.99h4.12c1.15,0,2.16-.23,3.04-.69.87-.46,1.54-1.11,2.02-1.94.47-.84.71-1.79.71-2.87s-.24-2.05-.71-2.87ZM81.27,15.08c-.56.55-1.35.83-2.37.83h-1.27v-6.39h1.27c1.02,0,1.8.28,2.37.85.57.56.85,1.35.85,2.37s-.28,1.8-.85,2.35Z"/>
        <path class="cls-1" d="M93.08,9.37v-2.14h-6.74v10.99h6.74v-2.15h-4.06v-2.41h3.59v-2.07h-3.59v-2.23h4.06Z"/>
        <path class="cls-1" d="M104.13,7.23l-3.06,7.61-3.09-7.61h-3.16v10.99h2.68v-6.61l2.47,6.61h2.16l2.46-6.59v6.59h2.68V7.23h-3.15Z"/>
        <path class="cls-1" d="M115.62,7.23l-2.11,4.6-2.13-4.6h-3.04l3.81,7.36v3.63h2.68v-3.63l3.81-7.36h-3.01Z"/>
        <path class="cls-1" d="M71.26,11.23c-.77.12-1.7.11-2.69-.08.79,2.35,1.58,4.7,2.38,7.05h2.84l-2.52-6.97ZM69.8,7.88h-3.1v.03s1.48.95,1.48.95c.24.16.51.27.8.32s.57.06.86,0l.42-.08-.45-1.23ZM65.67,10.05l-2.95,8.15h2.8c.81-2.4,1.61-4.79,2.42-7.18-.9-.22-1.69-.56-2.27-.96Z"/>
        <path class="cls-1" d="M68.97,7.26c-.28-.06-.55-.16-.8-.32l-3.19-2.05-.43,2.21c-.21,1.07,1.54,2.32,3.9,2.78s4.45-.03,4.66-1.1l.43-2.21-3.73.69c-.29.05-.57.05-.86,0h0Z"/>
        <path class="cls-1" d="M76.47,4.25c-.03.15-.15.26-.29.29l-6.36,1.18c-.41.08-.84,0-1.2-.23l-3.95-2.54-.4,2.04c.16.16.24.4.19.64-.04.22-.18.4-.37.49v1.26c.02.17-.06.33-.19.44-.13.11-.3.15-.47.12l-.3-.06c-.17-.03-.31-.14-.39-.29-.08-.15-.09-.33-.02-.48l.49-1.16c-.13-.16-.2-.37-.15-.59.05-.24.21-.43.42-.52l.46-2.35-.76-.49c-.13-.08-.19-.23-.16-.38s.15-.26.3-.29l4.39-.82c.85-.17,1.7-.34,2.56-.51.15.1.31.19.46.29.18.11.36.23.54.34,0,0,.02,0,.02.01h0s5.02,3.23,5.02,3.23c.13.08.19.23.16.38Z"/>
      </g>
      <g>
        <path class="cls-1" d="M94.72,26.38c-.37,0-.84-.22-.84-1.1,0-.71.29-1.49.85-1.94.3-.25.75-.44,1.08-.44.4,0,.58.27.58.57,0,.68-1.04,1.03-1.77,1.21-.02.14-.02.26-.02.31,0,.49.14.94.6.94.29,0,.62-.16.98-.54l.06.1c-.55.68-1.12.89-1.52.89ZM94.65,24.49c.88-.15,1.12-.58,1.12-.96,0-.22-.12-.38-.33-.38-.29,0-.65.29-.79,1.34Z"/>
        <path class="cls-1" d="M96.95,23.71c.36-.51.72-.82.96-.82.21,0,.31.25.45.74l.14.5c.62-.87.93-1.24,1.21-1.24.22,0,.31.16.31.33,0,.18-.17.39-.3.43-.06.01-.1-.01-.13-.04-.08-.07-.13-.18-.24-.18s-.39.31-.81.89l.27.91c.13.44.22.64.35.64.11,0,.27-.11.54-.43l.06.09c-.4.6-.79.86-1.05.86-.23,0-.35-.25-.48-.71l-.21-.72c-.7.99-.97,1.43-1.33,1.43-.19,0-.31-.16-.31-.36,0-.23.23-.46.36-.46.12,0,.17.24.31.24s.48-.39.92-1.04l-.22-.74c-.13-.45-.21-.58-.3-.58-.08,0-.21.05-.46.36l-.07-.09Z"/>
        <path class="cls-1" d="M102.48,25.53c-.47.57-1.02.85-1.47.85-.49,0-.83-.38-.83-1.1,0-.62.26-1.36.76-1.82.32-.3.8-.56,1.2-.56.31,0,.55.14.55.34,0,.12-.09.3-.25.39-.1.06-.17.03-.23-.07-.16-.25-.31-.38-.52-.38-.4,0-.75.8-.75,1.89,0,.62.23.87.54.87.36,0,.68-.24.94-.52l.06.11Z"/>
        <path class="cls-1" d="M104.25,25.59c-.42.55-.86.79-1.1.79s-.31-.22-.19-.79c.26-1.31.58-2.85.81-4.06.07-.36.03-.38-.29-.44-.07-.01-.1-.01-.15-.02l.02-.1c.4-.04.76-.12,1-.21.11-.04.19-.06.22-.06.06,0,.05.08.02.26-.31,1.49-.7,3.36-.94,4.61-.04.2-.01.28.05.28.08,0,.25-.09.48-.35l.06.09Z"/>
        <path class="cls-1" d="M108.02,25.59c-.4.54-.86.79-1.09.79-.21,0-.31-.18-.18-.76.05-.24.09-.43.15-.68-.37.55-.79.98-1.1,1.2-.19.14-.4.24-.58.24-.27,0-.51-.16-.3-1.08.11-.49.25-1.04.36-1.52.06-.26.06-.36-.03-.36s-.28.13-.47.33l-.06-.1c.35-.42.82-.75,1.11-.75.24,0,.27.26.13.91-.13.54-.26,1.06-.37,1.55-.09.4.03.51.12.51.26,0,.59-.37.91-.81.18-.24.36-.56.45-.94.08-.32.15-.64.23-1.02.22-.06.45-.13.68-.21h.06c-.18.79-.44,1.87-.59,2.67-.04.2-.03.3.04.3.08,0,.26-.12.48-.37l.06.09Z"/>
        <path class="cls-1" d="M110.66,23.3c0,.13-.16.34-.27.37-.05.02-.08,0-.15-.08-.15-.17-.35-.37-.58-.37-.22,0-.38.18-.38.4,0,.24.2.4.53.66.54.43.64.62.64.91,0,.61-.95,1.19-1.42,1.19-.35,0-.72-.24-.72-.54,0-.12.17-.37.31-.37.04,0,.07.01.1.05.28.36.52.52.77.52s.44-.18.44-.4c0-.19-.1-.35-.45-.64-.29-.25-.67-.5-.67-.92,0-.23.09-.51.46-.82.22-.18.54-.35.81-.35.31,0,.59.18.59.4Z"/>
        <path class="cls-1" d="M112.45,25.6c-.42.55-.87.78-1.11.78s-.3-.23-.15-.82c.18-.73.29-1.2.43-1.78.06-.26.06-.36-.03-.36-.09,0-.27.14-.46.33l-.06-.1c.35-.4.86-.75,1.14-.75.25,0,.24.26.09.92-.14.59-.28,1.17-.41,1.75-.05.2-.02.27.05.27.07,0,.24-.09.47-.34l.06.1ZM112.66,21.63c0,.25-.17.47-.4.47-.2,0-.33-.14-.33-.36s.15-.47.43-.47c.21,0,.31.17.31.36Z"/>
        <path class="cls-1" d="M112.84,23.67c.27-.37.7-.78.98-.78.19,0,.3.26.33.85.03.53.06,1.16.07,1.87.39-.45,1.07-1.28,1.08-1.75,0-.18-.05-.35-.13-.49-.02-.04-.03-.09,0-.15.05-.14.29-.33.47-.33.17,0,.27.17.26.44,0,.22-.07.54-.45,1.06-.48.64-1.35,1.6-1.73,1.98h-.13c-.03-.76-.05-1.54-.11-2.23-.04-.51-.08-.71-.18-.71-.07,0-.2.09-.4.32l-.06-.1Z"/>
        <path class="cls-1" d="M117,26.38c-.37,0-.84-.22-.84-1.1,0-.71.29-1.49.85-1.94.3-.25.75-.44,1.08-.44.4,0,.58.27.58.57,0,.68-1.04,1.03-1.77,1.21-.02.14-.02.26-.02.31,0,.49.14.94.6.94.29,0,.62-.16.98-.54l.06.1c-.55.68-1.12.89-1.52.89ZM116.93,24.49c.88-.15,1.11-.58,1.11-.96,0-.22-.12-.38-.33-.38-.29,0-.65.29-.79,1.34Z"/>
      </g>
    </g>
  </g>
</svg>