<?xml version="1.0" encoding="UTF-8"?>
<svg version="1.1" xmlns="http://www.w3.org/2000/svg" width="513" height="513">
<path d="M0 0 C0.78632813 0.45012451 1.57265625 0.90024902 2.3828125 1.36401367 C3.23488281 1.86263916 4.08695313 2.36126465 4.96484375 2.875 C6.33382812 3.66644409 6.33382812 3.66644409 7.73046875 4.47387695 C16.55223969 9.6054328 25.26191609 14.92248164 33.97094727 20.2421875 C42.39363576 25.38195007 50.87738177 30.4069896 59.40234375 35.375 C69.47853891 41.24939396 79.48388906 47.22709077 89.43994141 53.30273438 C98.88546625 59.06538331 108.38033991 64.73970331 117.90234375 70.375 C132.63653864 79.09866527 147.29903854 87.93385873 161.90234375 96.875 C163.24256592 97.69411865 163.24256592 97.69411865 164.60986328 98.52978516 C166.89827212 99.93108131 169.18266688 101.33858355 171.46484375 102.75 C172.41133789 103.33019897 172.41133789 103.33019897 173.37695312 103.92211914 C180.40132299 108.30036333 180.40132299 108.30036333 181.77734375 112.625 C181.93915946 116.83220838 180.96838136 119.22500022 178.90234375 122.875 C174.6640281 126.14414033 170.24310332 126.81155434 165.10009766 127.67749023 C163.75345346 127.91699622 163.75345346 127.91699622 162.37960434 128.16134071 C159.33934932 128.69944155 156.29672417 129.22269444 153.25390625 129.74609375 C151.04709738 130.13327341 148.84044714 130.52135816 146.63394165 130.91026306 C141.74169787 131.7705858 136.84835582 132.62430305 131.95422363 133.47381592 C124.20590138 134.81908642 116.46112265 136.18414516 108.71664953 137.55137372 C93.78584455 140.18684456 78.85096851 142.79831733 63.91285324 145.39202309 C54.88170616 146.96039065 45.85221888 148.53773114 36.82457769 150.12615782 C30.34601881 151.26526734 23.86569786 152.39397697 17.3840214 153.51520914 C13.56118184 154.1767965 9.73922304 154.84267928 5.91917038 155.52018929 C-32.43752469 162.31464416 -51.17442886 156.68969764 -84.015625 136.60888672 C-92.4870186 131.4324983 -101.01966939 126.37248521 -109.59765625 121.375 C-119.89114577 115.37528788 -130.10962885 109.26465419 -140.28088379 103.06008911 C-151.48970529 96.22294555 -162.77157832 89.51581724 -174.09765625 82.875 C-176.96217716 94.02575253 -179.63225958 105.21060946 -182.03710938 116.4699707 C-182.41552067 118.22012296 -182.80378951 119.9681688 -183.20117188 121.71411133 C-183.78354202 124.27763074 -184.33440953 126.84617491 -184.87890625 129.41796875 C-185.06199341 130.19504684 -185.24508057 130.97212494 -185.43371582 131.77275085 C-186.21565145 135.63474543 -186.43839311 137.35491148 -184.23632812 140.71606445 C-183.53056641 141.42851318 -182.82480469 142.14096191 -182.09765625 142.875 C-180.14838844 148.72280342 -180.31758132 155.39711492 -182.16015625 161.25 C-183.96152957 163.6905703 -185.26407742 164.73958382 -187.67114258 166.45507812 C-190.5611207 168.90692559 -191.5978315 170.43239614 -191.9206543 174.22460938 C-191.93433214 175.88939204 -191.91203054 177.55474405 -191.859375 179.21875 C-191.86358208 180.54972717 -191.86358208 180.54972717 -191.86787415 181.90759277 C-191.87313579 184.73130974 -191.83263679 187.55171545 -191.78515625 190.375 C-191.75358867 193.1977685 -191.73238549 196.01945596 -191.73457336 198.84240723 C-191.73444411 200.5944049 -191.71442097 202.34654927 -191.67155457 204.09802246 C-191.65206937 209.52657666 -192.4650349 212.57828942 -196.09765625 216.875 C-201.67113988 221.17122697 -206.12468692 222.5505818 -213.09765625 221.875 C-228.57270439 219.25080231 -228.57270439 219.25080231 -233.91015625 212.625 C-237.03150573 205.39661173 -236.03796468 201.03324807 -233.35620117 193.95117188 C-230.75142295 187.58449767 -227.7261276 181.40781266 -224.72460938 175.22070312 C-224.00241211 173.69026367 -224.00241211 173.69026367 -223.265625 172.12890625 C-222.82500732 171.21439697 -222.38438965 170.2998877 -221.93041992 169.35766602 C-221.01599858 166.63155912 -221.06391161 165.51269399 -222.09765625 162.875 C-222.42765625 162.2975 -222.75765625 161.72 -223.09765625 161.125 C-225.80619909 155.03077862 -225.36825771 149.47067639 -223.32421875 143.28125 C-220.94097514 138.60584216 -216.75819617 135.20526996 -212.09765625 132.875 C-211.28272847 130.35577753 -211.28272847 130.35577753 -210.66137695 127.24121094 C-210.26635735 125.43363312 -210.26635735 125.43363312 -209.86335754 123.58953857 C-209.58290931 122.26291769 -209.30294796 120.93619379 -209.0234375 119.609375 C-208.73289957 118.25504801 -208.44189291 116.9008215 -208.1504364 115.54669189 C-207.5405128 112.70303578 -206.93695203 109.85811917 -206.33764648 107.01220703 C-205.57004099 103.37003659 -204.78594681 99.73165263 -203.99686909 96.09408188 C-203.39186521 93.29540649 -202.79620702 90.49480401 -202.20326805 87.69355011 C-201.91798275 86.35173253 -201.62969979 85.01054859 -201.33834267 83.67003632 C-200.93127643 81.79085365 -200.5382204 79.90865275 -200.14575195 78.02636719 C-199.91862015 76.956828 -199.69148834 75.88728882 -199.45747375 74.78533936 C-199.08837726 71.79994804 -199.20155895 69.73750135 -200.09765625 66.875 C-202.175701 65.09879035 -202.175701 65.09879035 -204.8671875 63.75390625 C-205.83849609 63.21056641 -206.80980469 62.66722656 -207.81054688 62.10742188 C-208.83341797 61.55634766 -209.85628906 61.00527344 -210.91015625 60.4375 C-223.28380252 53.74200881 -223.28380252 53.74200881 -226.09765625 47.875 C-226.76719627 43.85775986 -226.28996692 42.23214838 -224.34765625 38.625 C-221.06916725 34.61795789 -218.08749146 33.70846017 -213.07885742 32.85552979 C-211.55696053 32.59150738 -211.55696053 32.59150738 -210.00431824 32.32215118 C-208.89429947 32.13624168 -207.7842807 31.95033218 -206.640625 31.75878906 C-204.87498955 31.45521107 -204.87498955 31.45521107 -203.07368469 31.14550018 C-200.5023638 30.70428891 -197.93076831 30.26541973 -195.35839844 29.83043671 C-191.22738733 29.13179873 -187.09798185 28.42397218 -182.96875 27.71490479 C-177.0726999 26.70331107 -171.17600394 25.69556896 -165.27880859 24.69067383 C-150.80566428 22.22407882 -136.33545719 19.74037049 -121.8664093 17.24986649 C-120.35180464 16.98917693 -118.83718668 16.72856466 -117.32255554 16.46802902 C-98.04055148 13.1510405 -78.77111867 9.77950953 -59.53515625 6.203125 C-58.61711212 6.03257851 -57.69906799 5.86203201 -56.75320435 5.68631744 C-48.51940766 4.15460386 -40.28898714 2.60603862 -32.06382751 1.02859116 C-29.20897603 0.48242421 -26.35291754 -0.05723387 -23.49661255 -0.59574127 C-21.61475693 -0.9536124 -19.73493424 -1.32212404 -17.85522461 -1.69110107 C-16.75831299 -1.89809631 -15.66140137 -2.10509155 -14.53125 -2.31835938 C-13.1244397 -2.59069397 -13.1244397 -2.59069397 -11.68920898 -2.86853027 C-7.20680047 -3.31212614 -3.8455783 -2.21660913 0 0 Z " fill="#3A66AE" transform="translate(284.09765625,9.125)"/>
<path d="M0 0 C8.79622022 4.68865366 17.37816508 9.70998009 25.9375 14.8125 C27.35244433 15.65407518 28.76740226 16.49562751 30.18237305 17.3371582 C38.68036852 22.39672926 47.15076844 27.50023761 55.59817505 32.64376831 C60.14806207 35.41387398 64.70111778 38.17876948 69.25543213 40.94158936 C70.43947991 41.65993847 71.62335266 42.37857615 72.80706787 43.09747314 C76.45137042 45.30975207 80.10109324 47.51262771 83.75814819 49.70376587 C85.43233577 50.70935783 87.10165391 51.72304331 88.77075195 52.73706055 C97.74975549 58.09873446 107.53208153 63.41395175 118 65 C119.03382813 65.15726562 120.06765625 65.31453125 121.1328125 65.4765625 C129.24819434 66.34062194 136.73357806 65.80628698 144.7734375 64.4921875 C145.86875793 64.31846619 146.96407837 64.14474487 148.09259033 63.96575928 C169.03283782 60.59681246 189.91457053 56.85025697 210.80517578 53.18896484 C215.70381382 52.33069565 220.60328471 51.47732475 225.50330353 50.62697601 C227.35196158 50.30513112 229.20029119 49.98139342 231.04827118 49.6556778 C233.61310952 49.20368164 236.17895777 48.75790167 238.74511719 48.31347656 C239.49621262 48.17949966 240.24730804 48.04552277 241.02116394 47.90748596 C245.06183233 47.21498443 248.90127343 46.86454735 253 47 C251.77351048 55.44535238 250.31495423 63.79793868 248.5390625 72.14453125 C248.3072226 73.23916183 248.07538269 74.33379242 247.83651733 75.46159363 C247.34948568 77.75177889 246.86034027 80.04151561 246.36914062 82.33081055 C245.62354575 85.81930414 244.89372593 89.31087859 244.1640625 92.80273438 C243.68586313 95.04187346 243.20672888 97.28081315 242.7265625 99.51953125 C242.40602402 101.06976738 242.40602402 101.06976738 242.07901001 102.65132141 C239.62351494 113.90666812 235.38770342 121.08995305 226 128 C216.03355693 134.2010662 205.37452459 137.49350948 194 140 C193.27151855 140.16516113 192.54303711 140.33032227 191.79248047 140.50048828 C165.25438306 146.1893245 134.55684275 144.65424821 108 140 C106.88753906 139.81195801 105.77507812 139.62391602 104.62890625 139.43017578 C66.83105927 132.86775953 17.09151579 119.4572372 -6.72265625 86.625 C-15.85548783 72.26379063 -13.73805667 60.48739279 -10.3125 44.4921875 C-10.04993408 43.24494904 -9.78736816 41.99771057 -9.5168457 40.712677 C-8.96507957 38.09844922 -8.4109683 35.48486769 -7.85253906 32.87207031 C-7.13603964 29.51878316 -6.42866347 26.16364944 -5.72413635 22.8078289 C-5.04929516 19.5975921 -4.3682703 16.38867137 -3.6875 13.1796875 C-3.43331299 11.97255096 -3.17912598 10.76541443 -2.91723633 9.521698 C-2.68029053 8.41609528 -2.44334473 7.31049255 -2.19921875 6.17138672 C-1.99127686 5.19418671 -1.78333496 4.21698669 -1.5690918 3.21017456 C-1 1 -1 1 0 0 Z " fill="#3A66AE" transform="translate(122,140)"/>
<path d="M0 0 C0.56203125 0.32871094 1.1240625 0.65742188 1.703125 0.99609375 C18.63034186 10.57606771 36.48259268 17.2007235 55 23 C55.76715332 23.24153809 56.53430664 23.48307617 57.32470703 23.73193359 C60.87563832 24.84684787 64.43205922 25.94076758 68 27 C62.36777526 44.56364821 56.09631214 61.87309165 49.76667786 79.19425964 C49.40668198 80.17945084 49.0466861 81.16464203 48.67578125 82.1796875 C48.30696335 83.1888472 47.93814545 84.1980069 47.55815125 85.23774719 C42.92431528 97.92831012 38.34836762 110.63978284 33.76945496 123.35023499 C31.89075733 128.56485665 30.01107664 133.77912413 28.13152695 138.99343872 C27.66678276 140.28276034 27.20205342 141.57208732 26.73733902 142.86141968 C22.04146224 155.88975954 17.33576573 168.91453691 12.625 181.9375 C12.29009552 182.86358063 11.95519104 183.78966125 11.61013794 184.74380493 C11.28641205 185.63892792 10.96268616 186.5340509 10.62915039 187.45629883 C10.35091934 188.22565262 10.07268829 188.99500641 9.786026 189.78767395 C5.5361398 201.52959665 1.26749114 213.26439937 -3 225 C-30.72 225 -58.44 225 -87 225 C-83.62500765 213.75002549 -83.62500765 213.75002549 -81.94140625 209.40991211 C-81.56176727 208.42574814 -81.1821283 207.44158417 -80.79098511 206.42759705 C-80.38558502 205.38801346 -79.98018494 204.34842987 -79.5625 203.27734375 C-79.13011017 202.15957047 -78.69772034 201.04179718 -78.25222778 199.89015198 C-77.08176389 196.86652514 -75.90798778 193.84421134 -74.73264313 190.82247925 C-73.49336538 187.63400623 -72.25838987 184.44386752 -71.02294922 181.25390625 C-68.99774526 176.02628556 -66.97005226 170.79963714 -64.94042969 165.57373047 C-62.24992557 158.64599677 -59.56542451 151.71594934 -56.8828125 144.78515625 C-49.29699002 125.19150619 -41.68450844 105.60841365 -34.03817749 86.03829956 C-27.12841823 68.35248347 -20.26358901 50.64931741 -13.40444946 32.94381714 C-12.66192046 31.02761262 -11.91906953 29.1115328 -11.1758728 27.19558716 C-9.41859489 22.66510426 -7.66556234 18.13308851 -5.92236328 13.59716797 C-5.59780655 12.75536484 -5.27324982 11.91356171 -4.93885803 11.04624939 C-4.33095005 9.46940713 -3.72507368 7.89177961 -3.12156677 6.31324768 C-1.1127961 1.1127961 -1.1127961 1.1127961 0 0 Z " fill="#3A66AE" transform="translate(142,282)"/>
<path d="M0 0 C6.41176113 0.42226503 12.81333054 0.87059698 19.20703125 1.51171875 C29.21142629 2.4981293 39.13008883 3.18667979 49.1875 3.1875 C50.0748584 3.1882251 50.9622168 3.1889502 51.87646484 3.18969727 C61.59443368 3.11232213 71.29780577 2.51983518 81 2 C102.45849607 57.34033197 102.45849607 57.34033197 103.64857483 60.40948486 C104.43164355 62.42897626 105.21471442 64.44846682 105.99778748 66.46795654 C107.95389818 71.51263488 109.9099701 76.55732824 111.8659668 81.60205078 C115.84991449 91.87695138 119.83450786 102.15160084 123.8203125 112.42578125 C127.76081782 122.5834242 131.6993572 132.74182771 135.63623047 142.90087891 C137.2518828 147.07004101 138.86817342 151.23895496 140.48486328 155.40771484 C142.50533191 160.61806063 144.52402607 165.82909073 146.54144287 171.0406189 C147.30131428 173.00278032 148.06176524 174.96471741 148.82281494 176.92642212 C149.86651454 179.61701189 150.90813778 182.30839613 151.94921875 185 C152.26069351 185.80157028 152.57216827 186.60314056 152.89308167 187.42900085 C155 192.88586133 155 192.88586133 155 194 C126.95 194 98.9 194 70 194 C65.84671301 183.32011916 61.72989716 172.67955842 57.8828125 161.89453125 C57.42405523 160.61430865 56.96506361 159.33417001 56.50585938 158.05410767 C55.54084108 155.36279042 54.57721895 152.67097965 53.61480713 149.97872925 C52.09327006 145.72260807 50.56824752 141.46774112 49.04248047 137.21313477 C48.78611376 136.49823726 48.52974705 135.78333975 48.26561165 135.04677868 C47.7479565 133.60328267 47.23029001 132.15979073 46.71261215 130.71630287 C45.93881601 128.55835757 45.16531386 126.40030709 44.39187622 124.24223328 C39.99159266 111.96601591 35.56564051 99.69917826 31.125 87.4375 C30.78957184 86.51118774 30.45414368 85.58487549 30.10855103 84.63049316 C28.76694174 80.92567812 27.42525604 77.22089082 26.08320618 73.51623535 C23.51335733 66.42124754 20.94936777 59.32415358 18.38671875 52.2265625 C17.23352565 49.03384043 16.08024844 45.84114876 14.92694092 42.64846802 C14.19862903 40.63171939 13.47062901 38.61485811 12.74298096 36.59786987 C11.73189554 33.79538999 10.71980022 30.99327813 9.70703125 28.19140625 C9.3910498 27.31671188 9.07506836 26.44201752 8.74951172 25.54081726 C6.47344249 19.25892118 4.14147725 12.99931606 1.73530579 6.76600647 C0 2.21603462 0 2.21603462 0 0 Z " fill="#3A66AE" transform="translate(227,313)"/>
</svg>
