<svg width="16" height="11" viewBox="0 0 16 11" fill="none" xmlns="http://www.w3.org/2000/svg">
<path d="M7.08955 7.51831C6.77913 7.45589 6.48313 7.33594 6.21682 7.16465L2.72587 4.92292L2.25243 7.34148C2.02426 8.51654 3.93516 9.87983 6.52484 10.3875C9.11453 10.8952 11.3962 10.3533 11.6586 9.18393L12.132 6.76536L8.05356 7.52402C7.74434 7.58106 7.42729 7.58106 7.11807 7.52402L7.08955 7.51831Z" fill="#E6E2DC"/>
<path d="M15.4518 4.76867C15.4378 4.84977 15.399 4.92454 15.3408 4.98274C15.2826 5.04095 15.2078 5.07974 15.1267 5.09381L7.99081 6.41718C7.52688 6.50351 7.04748 6.40967 6.65033 6.15479L2.22961 3.30841L1.77898 5.59007C1.86996 5.68262 1.93718 5.7958 1.97493 5.91996C2.01267 6.04412 2.01982 6.17557 1.99574 6.30309C1.97533 6.4232 1.92771 6.53705 1.85652 6.63592C1.78534 6.73479 1.69248 6.81606 1.58504 6.87351V8.28814C1.58483 8.38156 1.56432 8.47381 1.52492 8.55852C1.48552 8.64322 1.42818 8.71835 1.35688 8.7787C1.28494 8.83868 1.20037 8.88164 1.1095 8.90436C1.01863 8.92707 0.9238 8.92897 0.832094 8.90989L0.495549 8.84715C0.404019 8.82767 0.317827 8.7885 0.242963 8.73235C0.1681 8.6762 0.10636 8.60443 0.0620332 8.52201C0.0212169 8.43853 0 8.34684 0 8.25391C0 8.16099 0.0212169 8.0693 0.0620332 7.98582L0.632449 6.67957C0.555664 6.58944 0.500361 6.48305 0.470716 6.36843C0.441071 6.2538 0.43786 6.13393 0.461324 6.01789C0.487682 5.8922 0.54396 5.77473 0.625385 5.67543C0.706811 5.57613 0.810982 5.49794 0.929065 5.44747L1.44814 2.81785L0.575407 2.23603C0.506424 2.19044 0.45235 2.12559 0.4199 2.04953C0.387449 1.97348 0.378052 1.88957 0.392874 1.80822C0.409554 1.72732 0.449917 1.65321 0.508829 1.59532C0.567741 1.53742 0.64254 1.49835 0.723715 1.48308L5.62929 0.570416L8.48137 0L8.99474 0.325137L9.60509 0.701611L15.2351 4.32375C15.3153 4.36351 15.3801 4.42875 15.4193 4.50925C15.4586 4.58975 15.47 4.68098 15.4518 4.76867Z" fill="#E6E2DC"/>
</svg>
